<?xml version="1.0" encoding="utf-8"?>
<!-- Generator: Adobe Illustrator 20.1.0, SVG Export Plug-In . SVG Version: 6.00 Build 0)  -->
<svg version="1.1" id="Ebene_1" xmlns="http://www.w3.org/2000/svg" xmlns:xlink="http://www.w3.org/1999/xlink" x="0px" y="0px"
	 viewBox="0 0 200 50" style="enable-background:new 0 0 200 50;" xml:space="preserve">
<style type="text/css">
	.st0{fill:#1B2C4E;}
</style>
<path class="st0" d="M18.7,5.1c-2.5,0.5-3.8,3.4-3.5,7.7c0.1,1.2,0.1,1.1,0.3,2.7c0.1,0.6,0.2,1.2,0.2,1.2c0,0-0.5,0.1-1,0.3
	c-3.4,0.8-5.9,2-7.4,3.5c-1,1-1.4,2-1.4,3.2c0,0.7,0.2,1.4,0.6,2.1c0.4,0.6,1.6,1.9,2.4,2.4c1.7,1.2,2.3,1.3,2.7,0.9
	c0.2-0.2,0.2-0.3,0.2-0.5c0-0.5-0.2-0.7-0.7-1c-2.4-1.3-3.6-2.7-3.6-4c0-0.5,0.2-0.9,0.6-1.4c1-1.4,3.6-2.6,6.9-3.4
	c0.9-0.2,1.1-0.2,1.1-0.1c0,0.2,0.7,2.5,1.2,3.8l0.5,1.3l-0.6,1.1c-0.3,0.6-0.8,1.5-1,2c-3.3,7.3-3.9,13-1.5,15.4
	c0.6,0.6,1,0.8,1.8,1c1.7,0.4,4-0.2,6.6-1.9c0.9-0.6,1.1-0.8,1.1-1.2c0-0.5-0.5-0.9-1-0.9c-0.1,0-0.6,0.3-1.1,0.6
	c-1.1,0.7-2.3,1.3-3.1,1.6c-0.9,0.3-1.8,0.3-2.4,0c-1.7-0.7-2.1-3.7-1-7.9c0.5-2,1.6-4.9,2.6-7l0.4-0.8l0.2,0.5c0.4,1,2,4.1,2.7,5.2
	c3.5,6,7.5,10.3,11,12.1c2.5,1.3,4.5,1.2,5.9-0.3c1-1.1,1.5-2.7,1.6-5c0.1-4.1-1.2-9.4-3.8-15.1c-0.3-0.8-0.7-1.5-0.8-1.5
	c-0.2-0.2-0.6-0.3-0.8-0.2c-0.3,0.1-0.6,0.4-0.7,0.7c-0.1,0.3,0,0.4,0.6,1.8c1.8,3.9,3,7.9,3.5,11.4c0.2,1.1,0.2,3.6,0,4.4
	c-0.1,0.8-0.4,1.6-0.7,2c-0.5,0.7-1,1-1.9,1c-2.7,0-7-3.7-10.8-9.4c-1.7-2.6-3.4-5.6-4.6-8.4l-0.4-1l0.6-1.1c0.8-1.4,1.7-2.7,2.6-4
	l0.8-1.1h1.2c8,0,15.9,1.8,20,4.6c0.9,0.6,1.8,1.5,2.1,2.2c0.2,0.4,0.2,0.6,0.2,1.1c0,0.5,0,0.6-0.2,0.9c-0.5,1-1.8,1.9-3.5,2.7
	c-0.8,0.4-1.1,0.6-1.1,1c0,0.4,0.2,0.7,0.5,0.8c0.3,0.2,0.4,0.1,1-0.1c2.5-1,4.3-2.5,4.9-4c1-2.8-1.2-5.6-6-7.8
	c-4.2-1.9-10.5-3-17-3.2l-0.7,0l0.8-0.9c0.9-1.1,3-3.2,3.9-3.9c2.1-1.8,4-2.9,5.6-3.4c0.8-0.2,1.8-0.2,2.3,0c0.7,0.3,1.2,1,1.4,2.1
	c0.2,0.7,0.2,2.7,0,3.6C39,14.5,39,14.7,39.3,15c0.2,0.2,0.3,0.2,0.6,0.2c0.6,0,0.8-0.2,1-1.4c0.1-0.6,0.1-1.2,0.1-2.3
	c0-1.4,0-1.6-0.2-2.2c-0.5-1.8-1.6-3-3-3.4c-3.4-0.8-8.7,2.5-13.9,8.8c-0.4,0.5-0.8,1-0.9,1.1c-0.1,0.2-0.2,0.2-1.2,0.2
	c-0.6,0-1.7,0.1-2.5,0.2c-2,0.2-1.8,0.3-2-0.3c-0.3-1.4-0.4-2.5-0.4-4c0-1.7,0.1-2.2,0.4-3.1c0.3-1,0.9-1.7,1.6-1.9
	c0.3-0.1,1.2-0.1,1.7,0c0.8,0.2,2,0.9,3.1,1.7C24.3,9,24.6,9.1,24.9,9c0.4-0.1,0.6-0.4,0.6-0.8c0-0.3,0-0.4-0.3-0.7
	c-0.4-0.4-1.7-1.3-2.5-1.7C21.2,5.1,19.9,4.8,18.7,5.1L18.7,5.1z M21.4,17.8c0,0-0.5,0.7-1,1.6c-0.6,0.8-1.1,1.7-1.2,1.9L19,21.6
	l-0.2-0.5c-0.2-0.6-0.9-2.8-0.9-2.9c0-0.1,0.3-0.2,2.7-0.4C21.1,17.8,21.5,17.8,21.4,17.8L21.4,17.8z M26.9,22.3
	c-0.5,0.2-1,0.5-1.3,1c-0.9,1.3-0.5,3,0.9,3.7c0.4,0.2,0.5,0.2,1.1,0.2c0.6,0,0.7,0,1.1-0.2c1.9-0.9,1.8-3.7-0.1-4.5
	C28.2,22.2,27.4,22.1,26.9,22.3L26.9,22.3z"/>
<path class="st0" d="M61.9,38.1l12-25.9c0.3-0.6,0.7-1,1.4-1h0.1c0.7,0,1.1,0.4,1.4,1l11.9,25.8c0.1,0.2,0.2,0.4,0.2,0.6
	c0,0.5-0.4,1-1,1c-0.5,0-0.8-0.4-1-0.8l-3.3-7.2H66.9l-3.3,7.2c-0.2,0.5-0.5,0.8-1,0.8c-0.5,0-1-0.4-1-0.9
	C61.7,38.6,61.7,38.4,61.9,38.1z M82.6,29.8l-7.4-16.2l-7.4,16.2H82.6z"/>
<path class="st0" d="M105.4,13.4h-9c-0.5,0-1-0.4-1-1c0-0.5,0.4-1,1-1h20c0.5,0,1,0.4,1,1c0,0.5-0.4,1-1,1h-9v25.2c0,0.6-0.5,1-1,1
	c-0.6,0-1-0.5-1-1V13.4z"/>
<path class="st0" d="M126.4,25.6L126.4,25.6c0-7.7,5.6-14.6,14.1-14.6s14,6.8,14,14.4v0.1c0,7.6-5.6,14.5-14.1,14.5
	S126.4,33.2,126.4,25.6z M152.4,25.6L152.4,25.6c0-7-5-12.7-12-12.7s-11.9,5.6-11.9,12.5v0.1c0,6.9,5,12.6,12,12.6
	S152.4,32.5,152.4,25.6z"/>
<path class="st0" d="M167.5,12.4c0-0.6,0.5-1,1-1h0.2c0.4,0,0.8,0.2,1,0.6l10.9,16.1L191.7,12c0.2-0.4,0.6-0.6,1-0.6h0.2
	c0.6,0,1,0.5,1,1v26.2c0,0.6-0.5,1-1,1c-0.6,0-1-0.5-1-1V15.2l-10.3,15c-0.2,0.4-0.5,0.5-0.9,0.5c-0.4,0-0.6-0.2-0.9-0.5l-10.3-15
	v23.5c0,0.6-0.4,1-1,1s-1-0.4-1-1V12.4z"/>
</svg>
