<?xml version="1.0" encoding="utf-8"?>
<!-- Generator: Adobe Illustrator 20.1.0, SVG Export Plug-In . SVG Version: 6.00 Build 0)  -->
<svg version="1.1" id="Ebene_1" xmlns="http://www.w3.org/2000/svg" xmlns:xlink="http://www.w3.org/1999/xlink" x="0px" y="0px"
	 viewBox="0 0 300 300" style="enable-background:new 0 0 300 300;" xml:space="preserve">
<style type="text/css">
	.st0{fill:#4A4A49;}
</style>
<g>
	<path class="st0" d="M141.1,69.7c7.7,0,13.9-6.2,13.9-13.9c0-7.7-6.2-13.9-13.9-13.9c-7.7,0-13.9,6.2-13.9,13.9
		C127.2,63.5,133.4,69.7,141.1,69.7L141.1,69.7z M141.1,63.9c-4.5,0-8.1-3.6-8.1-8.1c0-4.5,3.6-8.1,8.1-8.1c4.5,0,8.1,3.6,8.1,8.1
		C149.2,60.3,145.6,63.9,141.1,63.9L141.1,63.9z"/>
	<path class="st0" d="M54.9,220.3c7.7,0,13.9-6.2,13.9-13.9s-6.2-13.9-13.9-13.9c-7.7,0-13.9,6.2-13.9,13.9
		C41,214.1,47.2,220.3,54.9,220.3z M54.9,214.5c-4.5,0-8.1-3.6-8.1-8.1c0-4.5,3.6-8.1,8.1-8.1s8.1,3.6,8.1,8.1
		C63,210.9,59.4,214.5,54.9,214.5L54.9,214.5z"/>
	<path class="st0" d="M241,206.4c0-7.7-6.2-13.9-13.9-13.9c-7.7,0-13.9,6.2-13.9,13.9c0,7.7,6.2,13.9,13.9,13.9
		C234.8,220.3,241,214.1,241,206.4z M235.2,206.4c0,4.5-3.6,8.1-8.1,8.1s-8.1-3.6-8.1-8.1c0-4.5,3.6-8.1,8.1-8.1
		S235.2,201.9,235.2,206.4z"/>
	<path class="st0" d="M97.7,214.5c9.7,27,25.6,43.6,43.4,43.6c13,0,25.1-8.8,34.4-24.4c0.8-1.4,0.4-3.2-1-4c-1.4-0.8-3.2-0.4-4,1
		c-8.4,14-18.8,21.6-29.5,21.6c-14.8,0-29-14.8-37.9-39.8c-0.5-1.5-2.2-2.3-3.7-1.8C97.9,211.4,97.2,213,97.7,214.5L97.7,214.5z"/>
	<path class="st0" d="M214.1,163.5c18.6-21.9,25-43.8,16.1-59.2c-6.6-11.3-20.4-17.3-38.8-17.5c-1.6,0-2.9,1.3-2.9,2.9
		c0,1.6,1.3,2.9,2.9,2.9c16.6,0.2,28.5,5.4,33.9,14.6c7.4,12.8,1.6,32.4-15.5,52.6c-1,1.2-0.9,3,0.3,4.1
		C211.3,164.8,213.1,164.7,214.1,163.5z"/>
	<path class="st0" d="M111.6,88.5c-28.3-5.1-50.7,0.2-59.7,15.7c-6.7,11.5-4.8,26.8,4.6,43.1c0.8,1.4,2.6,1.9,4,1.1
		c1.4-0.8,1.9-2.6,1.1-4c-8.4-14.7-10.1-27.9-4.6-37.3c7.4-12.8,27.4-17.6,53.6-12.9c1.6,0.3,3.1-0.8,3.4-2.3
		C114.2,90.3,113.1,88.7,111.6,88.5L111.6,88.5z"/>
	<path class="st0" d="M186.3,209.2c5-16,7.7-34.5,7.7-53.7c0-48-16.8-89.4-40.8-100c-1.5-0.6-3.2,0-3.8,1.5c-0.7,1.5,0,3.2,1.5,3.8
		c21.4,9.5,37.4,48.7,37.4,94.7c0,18.7-2.6,36.5-7.5,52c-0.5,1.5,0.4,3.2,1.9,3.6S185.8,210.8,186.3,209.2L186.3,209.2z"/>
	<path class="st0" d="M166.4,89.4c-16.8,3.6-34.6,10.6-51.8,20.5c-42.4,24.4-70.1,60.4-66.3,86.5c0.2,1.6,1.7,2.7,3.3,2.4
		c1.6-0.2,2.7-1.7,2.5-3.3c-3.4-23.2,22.8-57.3,63.4-80.7c16.6-9.6,33.9-16.4,50.1-19.8c1.6-0.3,2.6-1.9,2.2-3.4
		C169.6,90.1,168,89.1,166.4,89.4L166.4,89.4z"/>
	<path class="st0" d="M71.3,167c11.5,12.6,26.3,24.3,43.3,34.1c41.1,23.7,84.9,30,106.4,15.3c1.3-0.9,1.7-2.7,0.8-4
		c-0.9-1.3-2.7-1.7-4-0.8c-19.3,13.1-60.9,7.1-100.3-15.6c-16.5-9.5-30.9-20.9-41.9-33c-1.1-1.2-2.9-1.3-4.1-0.2
		C70.3,164,70.2,165.8,71.3,167L71.3,167z"/>
	<path class="st0" d="M143.2,165.4c-5.4,1.2-10.8-2.3-12-7.7c-1.2-5.4,2.3-10.7,7.7-11.9c5.4-1.2,10.8,2.3,12,7.7
		C152.1,158.9,148.7,164.2,143.2,165.4z"/>
</g>
</svg>
