<?xml version="1.0" encoding="utf-8"?>
<!-- Generator: Adobe Illustrator 20.1.0, SVG Export Plug-In . SVG Version: 6.00 Build 0)  -->
<svg version="1.1" id="Ebene_1" xmlns:sketch="http://www.bohemiancoding.com/sketch/ns"
	 xmlns="http://www.w3.org/2000/svg" xmlns:xlink="http://www.w3.org/1999/xlink" x="0px" y="0px" viewBox="0 0 3000 590"
	 style="enable-background:new 0 0 3000 590;" xml:space="preserve">
<style type="text/css">
	.st0{fill:#515D80;}
	.st1{fill:#2F4067;}
	.st2{fill:#0B2A51;}
</style>
<title>hero</title>
<desc>Created with Sketch.</desc>
<polygon class="st0" points="2941.6,388.6 2927.3,473.1 2902.1,312.3 2880.8,435.6 2866.5,388.5 2795.4,541.6 2743.4,525.3 
	2712.7,406.9 2683.5,490 2598.5,490 2428.6,308.2 2323.6,447.6 2270.8,457.8 2201.8,447.6 2128.7,473 2024,485.1 2004.6,473 
	1964.7,496.6 1868.5,525.2 1784.4,525.2 1646.2,514.8 1486.3,514.8 1460.9,501.3 1395.1,514.8 1324.7,496.6 1233,525.2 
	1154.4,514.8 1077.5,535.1 1040.4,529.7 977.3,541.6 877.7,541.6 824,525.3 792.1,485.1 751.6,496.6 693.5,414.8 620.8,435.6 
	556.8,335.2 442.6,407 351.8,312.3 333.7,353.9 255.3,346 61.3,590 2976.6,590 "/>
<polygon class="st1" points="2693.1,519.2 2657.4,375.7 2610.4,459.1 2525.8,285.8 2453.9,429.8 2350.1,381 2278.2,496 2202,519.2 
	2141,496 2111.2,519.2 1929.2,571.6 1854.1,531.9 1672.6,557.2 1584.6,535.9 1528,557.2 1399.2,564.5 1184,564.5 1030.2,564.5 
	981.2,564.5 912,544.1 830.8,564.5 760.1,475.9 678.7,496 616.1,410.2 375.8,475.9 298.8,381 237.2,440.5 109.4,496 160.5,590 
	2789.3,590 "/>
<rect y="409" class="st2" width="136" height="180"/>
<rect x="2933" y="409" class="st2" width="67" height="180"/>
<polygon class="st2" points="3000,455.6 2945.9,350.5 2911.7,450.8 2713.2,511.9 2684.6,411.7 2650.2,526.4 2603,338.4 
	2525.9,499.9 2397.2,550.3 2362.6,499.9 2289.4,516.2 2206.8,567.6 2083.2,497.9 1998.1,499.9 1841,550.3 1574.8,550.3 
	1501.7,537.1 1472.9,550.3 1273.9,550.3 1256.9,537.1 1217,550.3 753.8,550.3 665.4,439 605,473.6 442.8,288.1 382,400.3 
	341.5,376.5 207.9,478.6 90.1,400.3 0,504 0,590 3000,590 "/>
<path class="st2" d="M180.3,365.2c12.2-49.1,56.1-163.4,197.9-144.1c0,0,87.5,14.1,142-46.4c0,0,49.4-61.5-35.3-34.6
	c0,0-52.3,26.5-148.6-2.1c0,0-142.9-51.4-242.9,156C65,351.9,28,402.9,0,446.8V590h77.3C133.5,547.2,165.9,428.1,180.3,365.2z
	 M455.8,180.1c5.8-3,12.2-2.2,14.2,1.8c2.2,3.9-0.8,9.7-6.6,12.6c-5.8,3-12.2,2.3-14.2-1.9C447.1,188.7,450,183,455.8,180.1z
	 M413.2,185.3c7.8-0.7,14.3,3.1,14.8,8.5c0.3,5.3-5.5,10.1-13.3,10.8c-7.8,0.6-14.4-3.2-14.7-8.5
	C399.6,190.8,405.6,185.9,413.2,185.3z M360,182.4c8.7,0.5,15.6,5.9,15.2,12c-0.4,6.2-7.8,10.6-16.5,10.2c-8.9-0.6-15.7-6-15.4-12.2
	C343.6,186.3,351.2,181.9,360,182.4z M295.8,184.6c9.5-1.5,18.1,2.6,19.2,9.2c1.1,6.6-5.8,13.3-15.4,14.7
	c-9.5,1.5-18.2-2.6-19.1-9.3C279.3,192.6,286.2,186,295.8,184.6z M229.8,210.8c7.9-5.6,17.5-5.7,21.4-0.3c3.9,5.5,0.6,14.5-7.4,20.1
	c-7.9,5.5-17.4,5.7-21.4,0.3C218.7,225.4,222,216.4,229.8,210.8z M178.5,259c5.8-7.8,14.9-10.7,20.2-6.7c5.3,4.2,4.9,13.6-0.9,21.4
	c-5.8,7.8-15,10.7-20.2,6.6C172.2,276.3,172.6,266.7,178.5,259z M145.1,314.4c4.5-8.5,13-12.9,18.9-9.9c6.1,3.3,7.1,12.8,2.7,21.3
	c-4.6,8.6-13,13-19.1,9.8C141.8,332.5,140.6,323.1,145.1,314.4z"/>
<path class="st2" d="M2808.2,564.3c105.9-224.4-34.1-309.2-34.1-309.2c-89.2-61.3-102.5-123-102.4-122.9c-35-89.2-53-6.1-53-6.1
	c-13.7,86.6,57.5,150.3,57.5,150.3c112.3,105.7,46.4,220,13.5,263.4c-12.6,12.5-27.4,29.9-42.2,50.2h149.5
	C2800.5,581.4,2804.2,572.8,2808.2,564.3z M2682.4,241.1c-4.8,3.4-12.5,0.5-17.2-6.6c-4.7-6.9-4.6-15.1,0.1-18.4
	c4.8-3.3,12.5-0.4,17.2,6.6C2687.2,229.5,2687.1,237.9,2682.4,241.1z M2723.8,286.1c-4.9,4.5-14,2.4-20.6-4.6
	c-6.3-7.1-7.7-16.3-2.8-20.8s14-2.4,20.4,4.6C2727.2,272.4,2728.7,281.7,2723.8,286.1z M2741.8,310.7c6.2-3.5,15.6,0.8,20.7,9.9
	c5.3,8.9,4.4,19.2-1.8,22.7c-6.2,3.8-15.6-0.7-20.7-9.7C2734.7,324.6,2735.5,314.2,2741.8,310.7z M2756,534.7
	c-4.2,9.6-12.9,15.1-19.5,12.3c-6.7-2.9-8.7-12.9-4.6-22.6c4.1-9.5,12.8-15.1,19.6-12.2C2758,515,2760.1,525.2,2756,534.7z
	 M2779.8,469.3c-2.5,10.2-10.2,17-17.2,15.1c-7-1.6-10.7-11.3-8.2-21.4c2.6-10.1,10.2-16.8,17.3-15.2
	C2778.6,449.6,2782.4,459.1,2779.8,469.3z M2773.6,413.3c-7.2,0.5-13.6-7.7-14.3-18.1c-0.8-10.4,4.6-19.3,11.8-19.8
	c7.2-0.4,13.6,7.8,14.3,18.1C2786,403.9,2780.8,412.8,2773.6,413.3z"/>
<path id="Path-24" class="st2" d="M2040.8,291.7c0,0,1.1,23.2,1.1,31c3.9,8.1,14.8,48.6,14.8,91.1s-10.1,59.5-10.1,59.5h-11.3
	c0,0-9.8-17.5-9.8-59.5s8.4-72.4,14.4-91.1C2039.9,314.8,2040.8,291.7,2040.8,291.7z"/>
<path id="Path-25" class="st2" d="M2020.2,412.7l-2,34.3l23.2-1.8c0,0-0.2,4.1-0.2,9.2c-29.4-5.1-33.1,30.6-39.9,49.3l-4.1,1.1
	l19.1-92L2020.2,412.7z"/>
<path id="Path-25_1_" class="st2" d="M2061.9,412.7l2,34.3l-23.2-1.8c0,0,0.2,4.1,0.2,9.2c29.4-5.1,33.1,30.6,39.9,49.3l4.1,1.1
	l-19.1-92L2061.9,412.7z"/>
<path id="Fire" class="st2" d="M978.1,499.9c0-1.6-0.9-2.8-0.9-2.8l15.3,0.5c0,0-11.9,1-11.9,2s5.5,2.6,5.5,2.6l-8.9,0.7
	C977.1,502.7,978.1,501.4,978.1,499.9z"/>
<path id="Ship" class="st2" d="M949.8,495.8c20.7,0,25.7-0.9,25.7,3.8s-20.4,5.5-25.7,5.5s-25.7-0.6-25.7-5.5
	C924.1,494.7,929.1,495.8,949.8,495.8z"/>
<path class="st2" d="M947.3,499.5c0-0.4,0-2,0-2.9c-3.2,0.7-3.9-1.4-3.9-1.4c-0.5-1.3-1.3-1.7-1.3-1.7c-1.1-0.7,0.1-0.7,0.1-0.7
	c1.2,0.1,1.8,1.2,1.8,1.2c1,1.8,2.7,1.3,3.4,1c0.1-0.7,0.4-1.3,0.7-1.6c-2.6-0.3-5.3-1.3-5.3-5.7c0-1.3,0.5-2.3,1.2-3.1
	c-0.1-0.3-0.5-1.5,0.1-3.1c0,0,1-0.3,3.2,1.2c0.9-0.3,1.9-0.4,2.9-0.4s2,0.1,2.9,0.4c2.2-1.5,3.2-1.2,3.2-1.2
	c0.6,1.6,0.2,2.8,0.1,3.1c0.7,0.8,1.2,1.8,1.2,3.1c0,4.5-2.7,5.4-5.3,5.7c0.4,0.4,0.8,1.1,0.8,2.1c0,1.6,0,3.7,0,4
	c-0.7,0.2-1.7,0.4-2.9,0.4S948.1,499.7,947.3,499.5z"/>
<path id="Shape" class="st2" d="M949.9,499.3c4.8,0,7.8-0.4,10.2-1.5c3-1.4,4.5-3.9,4.5-7.8c0-8.1-6.6-14.7-14.7-14.7
	c-8.1,0-14.7,6.6-14.7,14.7c0,3.9,1.5,6.4,4.5,7.8C942.1,498.9,945.2,499.3,949.9,499.3L949.9,499.3z M949.9,497.3
	c-9.6,0-13.4-1.8-13.4-8c0-7.4,6-13.4,13.4-13.4s13.4,6,13.4,13.4C963.3,495.5,959.5,497.3,949.9,497.3L949.9,497.3z"/>
</svg>
