<?xml version="1.0" encoding="utf-8"?>
<!-- Generator: Adobe Illustrator 20.1.0, SVG Export Plug-In . SVG Version: 6.00 Build 0)  -->
<svg version="1.1" id="logo-less" xmlns="http://www.w3.org/2000/svg" xmlns:xlink="http://www.w3.org/1999/xlink" x="0px" y="0px"
	 viewBox="0 0 150 70" style="enable-background:new 0 0 150 70;" xml:space="preserve">
<style type="text/css">
	.st0{fill:#4A4A49;}
</style>
<path class="st0" d="M130.9,27.9c0-3.9,0.6-6.2,0.6-10.4c0-6.5-2.4-8.6-7.7-8.6h-3.9v4.6h1.2c2.7,0,3.3,0.9,3.3,4.2
	c0,3.1-0.3,6.2-0.3,9.8c0,4.6,1.5,6.4,4.5,7.1v0.3c-3,0.7-4.5,2.5-4.5,7.1c0,3.6,0.3,6.5,0.3,9.8c0,3.4-0.7,4.3-3.3,4.3v0.1h-1.2V61
	h3.9c5.3,0,7.7-2.1,7.7-8.6c0-4.3-0.6-6.5-0.6-10.4c0-2.1,1.3-4.3,5.2-4.5v-5.2C132.1,32.2,130.9,30,130.9,27.9z M110.8,34
	c-3-1.2-5.8-1.9-5.8-3.9c0-1.5,1.2-2.4,3.4-2.4s4.2,0.9,6.4,2.5l4-5.3c-2.5-1.9-5.9-3.9-10.5-3.9c-6.8,0-11.4,3.9-11.4,9.4
	c0,4.9,4.3,7.4,7.9,8.8c3.1,1.2,6.1,2.2,6.1,4.2c0,1.5-1.2,2.5-3.9,2.5c-2.5,0-5-1-7.7-3.1l-4,5.8c3,2.5,7.6,4.2,11.4,4.2
	c8,0,12.3-4.2,12.3-9.7S114.7,35.3,110.8,34z M42.5,45.3c-0.7,0-1.6-0.6-1.6-2.5V13.7V9.3V8.9H26.7c-5.4,0-7.8,2.1-7.8,8.6
	c0,4.3,0.6,6.7,0.6,10.4c0,2.1-1.3,4.3-5.2,4.5v5.2c3.9,0.1,5.2,2.3,5.2,4.4c0,3.7-0.6,5.9-0.6,10.2c0,6.5,2.4,8.6,7.7,8.6h3.9v-4.6
	h-1.2c-2.5,0-3.3-1-3.3-4.3s0.3-6.1,0.3-9.8c0-4.6-1.5-6.4-4.5-7.1v-0.3c3-0.7,4.5-2.5,4.5-7.1c0-3.6-0.3-6.5-0.3-9.8
	s0.7-4.2,3.3-4.2H32c0,6.5,0,28.7,0,28.7c0,6.1,2.1,10.1,8.2,10.1c1.9,0,3.4-0.3,4.5-0.7l-1-6.5C43.1,45.3,42.8,45.3,42.5,45.3z
	 M86.6,34c-3.1-1.2-5.9-1.9-5.9-3.9c0-1.5,1.2-2.4,3.4-2.4c2.2,0,4.2,0.9,6.4,2.5l4-5.3C92,23,88.6,21,84,21
	c-6.8,0-11.4,3.9-11.4,9.4c0,4.9,4.3,7.4,7.9,8.8c3.1,1.2,6.1,2.2,6.1,4.2c0,1.5-1.2,2.5-3.9,2.5c-2.5,0-5-1-7.7-3.1l-3.9,5.8
	c3,2.5,7.6,4.2,11.4,4.2c8,0,12.3-4.2,12.3-9.7S90.5,35.3,86.6,34z M57.1,20.9c-7.3,0-14.3,6.1-14.1,15.7c0,9.9,6.5,15.7,15.1,15.7
	c3.6,0,7.6-1.3,10.7-3.4l-3-5.3c-2.2,1.3-4.3,1.9-6.5,1.9c-4,0-7.1-1.9-7.9-6.5h18.1c0.1-0.7,0.3-2.1,0.3-3.7
	C69.9,27.2,65.4,20.9,57.1,20.9z M51.4,33.5c0.6-4,3-5.9,5.8-5.9c3.6,0,5,2.5,5,5.9H51.4z"/>
</svg>
