<?xml version="1.0" encoding="utf-8"?>
<!-- Generator: Adobe Illustrator 16.0.0, SVG Export Plug-In . SVG Version: 6.00 Build 0)  -->
<!DOCTYPE svg PUBLIC "-//W3C//DTD SVG 1.1//EN" "http://www.w3.org/Graphics/SVG/1.1/DTD/svg11.dtd">
<svg version="1.1" id="Layer_1" xmlns="http://www.w3.org/2000/svg" xmlns:xlink="http://www.w3.org/1999/xlink" x="0px" y="0px"
	 width="24px" height="24px" viewBox="0 0 24 24" enable-background="new 0 0 24 24" xml:space="preserve">
<path d="M7.135,1.115c-1.39,0.303-2.126,1.914-1.969,4.298c0.048,0.69,0.04,0.623,0.183,1.505c0.061,0.355,0.101,0.655,0.093,0.664
	C5.433,7.594,5.19,7.654,4.905,7.721c-1.889,0.435-3.279,1.09-4.114,1.938C0.228,10.226-0.008,10.753,0,11.42
	c0.005,0.375,0.129,0.787,0.355,1.182c0.195,0.34,0.895,1.031,1.354,1.342c0.963,0.649,1.26,0.74,1.521,0.476
	c0.112-0.111,0.137-0.167,0.137-0.3c0-0.255-0.088-0.379-0.388-0.544c-1.319-0.731-2.01-1.489-2.01-2.216
	c0-0.264,0.092-0.503,0.312-0.791C1.861,9.798,3.26,9.107,5.133,8.664c0.496-0.116,0.592-0.124,0.592-0.04
	c0,0.107,0.399,1.386,0.655,2.085l0.256,0.703l-0.316,0.604c-0.172,0.332-0.418,0.834-0.547,1.123
	c-1.834,4.039-2.138,7.246-0.811,8.564c0.311,0.311,0.566,0.456,0.984,0.563c0.967,0.249,2.247-0.123,3.68-1.071
	c0.5-0.331,0.611-0.455,0.611-0.674c0-0.263-0.288-0.519-0.544-0.479c-0.072,0.013-0.352,0.168-0.619,0.344
	c-0.592,0.395-1.254,0.724-1.735,0.866c-0.49,0.145-1.022,0.152-1.324,0.02c-0.933-0.412-1.147-2.073-0.568-4.377
	c0.271-1.096,0.896-2.741,1.458-3.864l0.224-0.451l0.124,0.28c0.231,0.535,1.134,2.28,1.485,2.876
	c1.946,3.306,4.138,5.732,6.085,6.722c1.378,0.703,2.516,0.64,3.29-0.188c0.571-0.603,0.852-1.482,0.898-2.8
	c0.075-2.269-0.663-5.22-2.108-8.384c-0.192-0.424-0.384-0.807-0.42-0.847c-0.089-0.096-0.312-0.16-0.463-0.128
	c-0.152,0.031-0.337,0.216-0.364,0.371c-0.031,0.148,0.005,0.248,0.36,1.018c0.99,2.138,1.685,4.382,1.953,6.311
	c0.088,0.635,0.103,2.014,0.024,2.438c-0.08,0.428-0.236,0.87-0.404,1.126c-0.267,0.412-0.575,0.579-1.082,0.576
	c-1.506-0.004-3.879-2.073-5.988-5.213c-0.971-1.451-1.865-3.089-2.556-4.69l-0.249-0.57l0.348-0.587
	C8.509,10.13,8.98,9.412,9.507,8.672l0.42-0.587h0.647c4.441,0,8.852,1.007,11.104,2.529c0.517,0.347,1.011,0.855,1.184,1.206
	c0.118,0.248,0.135,0.316,0.135,0.6c-0.003,0.267-0.02,0.351-0.111,0.526c-0.275,0.536-0.975,1.067-1.945,1.49
	c-0.456,0.195-0.599,0.332-0.599,0.563c0,0.215,0.088,0.371,0.256,0.451c0.183,0.088,0.247,0.081,0.543-0.04
	c1.395-0.563,2.4-1.395,2.717-2.241c0.583-1.558-0.639-3.132-3.335-4.307c-2.356-1.03-5.82-1.674-9.424-1.75l-0.396-0.009
	l0.451-0.519c0.52-0.604,1.666-1.75,2.157-2.161c1.166-0.982,2.21-1.606,3.108-1.861c0.442-0.128,0.991-0.124,1.274,0.004
	c0.384,0.172,0.65,0.559,0.799,1.158c0.092,0.363,0.092,1.474,0,2.009c-0.104,0.591-0.092,0.695,0.068,0.854
	c0.116,0.116,0.164,0.135,0.332,0.135c0.355,0,0.446-0.132,0.555-0.778c0.056-0.332,0.075-0.647,0.075-1.298
	c0-0.758-0.013-0.903-0.091-1.218c-0.252-0.995-0.866-1.681-1.69-1.877c-1.909-0.447-4.829,1.39-7.733,4.874
	c-0.239,0.284-0.463,0.563-0.5,0.611c-0.06,0.088-0.1,0.095-0.679,0.132c-0.337,0.02-0.951,0.076-1.371,0.124
	C6.348,7.42,6.436,7.431,6.372,7.144C6.204,6.341,6.148,5.777,6.145,4.908C6.141,3.965,6.173,3.685,6.344,3.162
	C6.527,2.607,6.839,2.231,7.235,2.1c0.191-0.068,0.663-0.06,0.942,0.012c0.467,0.124,1.126,0.476,1.725,0.926
	c0.355,0.268,0.48,0.315,0.668,0.252c0.215-0.068,0.343-0.248,0.343-0.472c0-0.167-0.016-0.2-0.191-0.368
	c-0.248-0.239-0.966-0.719-1.402-0.935C8.497,1.104,7.778,0.973,7.131,1.113L7.135,1.115z M8.634,8.193
	C8.63,8.212,8.369,8.605,8.063,9.068c-0.308,0.463-0.611,0.931-0.676,1.039l-0.115,0.196l-0.096-0.26
	c-0.12-0.315-0.491-1.538-0.491-1.614c0-0.072,0.176-0.1,1.478-0.236C8.435,8.165,8.649,8.165,8.634,8.193L8.634,8.193z
	 M11.673,10.662c-0.283,0.092-0.56,0.296-0.723,0.539c-0.491,0.724-0.252,1.666,0.52,2.045c0.239,0.12,0.299,0.131,0.627,0.131
	c0.327,0,0.388-0.012,0.627-0.131c1.042-0.512,1.019-2.029-0.04-2.517C12.404,10.601,11.952,10.573,11.673,10.662L11.673,10.662z"/>
</svg>
