<?xml version="1.0" encoding="utf-8"?>
<!-- Generator: Adobe Illustrator 19.2.1, SVG Export Plug-In . SVG Version: 6.00 Build 0)  -->
<svg version="1.1" id="Ebene_1" xmlns="http://www.w3.org/2000/svg" xmlns:xlink="http://www.w3.org/1999/xlink" x="0px" y="0px"
	 viewBox="0 0 20 12" style="enable-background:new 0 0 20 12;" xml:space="preserve">
<style type="text/css">
	.st0{fill:#555555;}
</style>
<g>
	<path class="st0" d="M9.3,2.6L4.4,7.5c0,0.1-0.1,0.4-0.1,0.6c0,0.1,0.1,0.6,0.3,0.7l0.6,0.6c0.1,0.1,0.3,0.3,0.6,0.3
		s0.4-0.1,0.7-0.3L10,5.7l3.5,3.7c0.3,0.1,0.4,0.3,0.7,0.3s0.4-0.1,0.6-0.3l0.6-0.6c0.1-0.1,0.3-0.4,0.3-0.7c0-0.3-0.1-0.4-0.3-0.7
		l-4.9-4.9c-0.1,0-0.3-0.1-0.6-0.1S9.6,2.5,9.3,2.6z"/>
</g>
</svg>
