<?xml version="1.0" encoding="utf-8"?>
<!-- Generator: Adobe Illustrator 19.2.1, SVG Export Plug-In . SVG Version: 6.00 Build 0)  -->
<svg version="1.1" id="Ebene_1" xmlns="http://www.w3.org/2000/svg" xmlns:xlink="http://www.w3.org/1999/xlink" x="0px" y="0px"
	 viewBox="0 0 20 12" style="enable-background:new 0 0 20 12;" xml:space="preserve">
<style type="text/css">
	.st0{fill:#9DA5B4;}
</style>
<g>
	<path class="st0" d="M10.7,9.4l4.9-4.9c0-0.1,0.1-0.4,0.1-0.6s-0.1-0.6-0.3-0.7l-0.6-0.6c-0.1-0.1-0.3-0.3-0.6-0.3
		s-0.4,0.1-0.7,0.3L10,6.3L6.5,2.6C6.2,2.5,6,2.3,5.7,2.3S5.3,2.5,5.1,2.6L4.5,3.2C4.4,3.3,4.2,3.6,4.2,3.9s0.1,0.4,0.3,0.7l4.9,4.9
		c0.1,0,0.3,0.1,0.6,0.1S10.4,9.5,10.7,9.4z"/>
</g>
</svg>
