<?xml version="1.0" encoding="utf-8"?>
<!-- Generator: Adobe Illustrator 19.2.1, SVG Export Plug-In . SVG Version: 6.00 Build 0)  -->
<svg version="1.1" id="Ebene_1" xmlns="http://www.w3.org/2000/svg" xmlns:xlink="http://www.w3.org/1999/xlink" x="0px" y="0px"
	 viewBox="0 0 20 25" style="enable-background:new 0 0 20 25;" xml:space="preserve">
<style type="text/css">
	.st0{fill:#565555;}
</style>
<g>
	<path class="st0" d="M10.7,16.6l4.9-4.9c0-0.1,0.1-0.4,0.1-0.6c0-0.1-0.1-0.6-0.3-0.7l-0.6-0.6c-0.1-0.1-0.3-0.3-0.6-0.3
		s-0.4,0.1-0.7,0.3L10,13.5L6.5,9.8C6.2,9.6,6,9.5,5.7,9.5S5.3,9.6,5.1,9.8l-0.6,0.6c-0.1,0.1-0.3,0.4-0.3,0.7
		c0,0.3,0.1,0.4,0.3,0.7l4.9,4.9c0.1,0,0.3,0.1,0.6,0.1S10.4,16.7,10.7,16.6z"/>
</g>
</svg>
