<?xml version="1.0" encoding="utf-8"?>
<!-- Generator: Adobe Illustrator 19.2.1, SVG Export Plug-In . SVG Version: 6.00 Build 0)  -->
<svg version="1.1" id="Ebene_1" xmlns="http://www.w3.org/2000/svg" xmlns:xlink="http://www.w3.org/1999/xlink" x="0px" y="0px"
	 viewBox="0 0 10 15" style="enable-background:new 0 0 10 15;" xml:space="preserve">
<style type="text/css">
	.st0{fill:#565555;}
</style>
<g>
	<path class="st0" d="M4.6,10.8l3.3-3.3C7.9,7.4,8,7.2,8,7.1S7.9,6.7,7.8,6.6L7.4,6.2C7.3,6.1,7.2,6,7,6C6.8,6,6.7,6.1,6.5,6.2
		L4.1,8.7L1.7,6.2C1.5,6.1,1.4,6,1.2,6C1,6,0.9,6.1,0.8,6.2L0.4,6.6C0.3,6.7,0.2,6.9,0.2,7.1c0,0.2,0.1,0.3,0.2,0.5l3.3,3.3
		C3.8,10.9,3.9,11,4.1,11C4.3,11,4.4,10.9,4.6,10.8z"/>
</g>
</svg>
