<?xml version="1.0" encoding="utf-8"?>
<!-- Generator: Adobe Illustrator 20.0.0, SVG Export Plug-In . SVG Version: 6.00 Build 0)  -->
<svg version="1.1" id="Ebene_1" xmlns="http://www.w3.org/2000/svg" xmlns:xlink="http://www.w3.org/1999/xlink" x="0px" y="0px"
	 viewBox="0 0 25 25" style="enable-background:new 0 0 25 25;" xml:space="preserve">
<style type="text/css">
	.st0{fill:#9FA5B4;}
	.st1{fill:#9DA5B4;}
</style>
<g>
	<path class="st0" d="M24.1,11.6l-1.1-1.1c-0.1-0.1-0.4-0.2-0.5-0.2c-0.2,0-0.5,0.1-0.5,0.2l-5.2,5.2l-2.4-2.4
		c-0.1-0.1-0.4-0.2-0.6-0.2c-0.2,0-0.5,0.1-0.5,0.2l-1.1,1.1c-0.1,0.1-0.2,0.2-0.2,0.5s0.1,0.5,0.2,0.5l2.8,2.8l1.1,1.1
		c0.1,0.1,0.4,0.2,0.5,0.2c0.2,0,0.5-0.1,0.5-0.2l1.1-1.1l5.8-5.8c0.1-0.1,0.2-0.4,0.2-0.5C24.4,11.9,24.2,11.8,24.1,11.6z"/>
</g>
<path class="st1" d="M15.4,2.4H3.6c-0.5,0-0.9,0.4-0.9,0.9V18c0,0.5,0.4,0.9,0.9,0.9h0.8c0-0.4,0-0.9,0-1.3H4.1V3.7H15v0.4
	c0.4,0,0.9,0,1.3,0V3.3C16.3,2.8,15.9,2.4,15.4,2.4z"/>
<path class="st1" d="M17.4,4.4H5.6c-0.5,0-0.9,0.4-0.9,0.9V20c0,0.5,0.4,0.9,0.9,0.9h0.8c0-0.4,0-0.9,0-1.3H6.1V5.7H17v0.3
	c0.4,0,0.9,0,1.3,0V5.3C18.3,4.8,17.9,4.4,17.4,4.4z"/>
<path class="st1" d="M19.8,17.9c-0.2,0.2-0.5,0.5-0.7,0.7v2.9H8.2V7.7h10.9v4.5c0.2-0.2,0.4-0.4,0.5-0.6c0.2-0.2,0.5-0.5,0.8-0.7
	V7.3c0-0.5-0.4-0.9-0.9-0.9H7.7c-0.5,0-0.9,0.4-0.9,0.9V22c0,0.5,0.4,0.9,0.9,0.9h11.8c0.5,0,0.9-0.4,0.9-0.9v-4.6
	C20.2,17.6,20,17.7,19.8,17.9z"/>
</svg>
