<?xml version="1.0" encoding="utf-8"?>
<!-- Generator: Adobe Illustrator 19.2.1, SVG Export Plug-In . SVG Version: 6.00 Build 0)  -->
<svg version="1.1" id="Ebene_1" xmlns="http://www.w3.org/2000/svg" xmlns:xlink="http://www.w3.org/1999/xlink" x="0px" y="0px"
	 viewBox="0 0 15 15" style="enable-background:new 0 0 15 15;" xml:space="preserve">
<style type="text/css">
	.st0{fill:#9DA5B4;}
</style>
<g>
	<path class="st0" d="M14.6,3.4l-1.3-1.3c-0.2-0.2-0.4-0.3-0.6-0.3c-0.3,0-0.5,0.1-0.6,0.3L5.8,8.4L3,5.6C2.8,5.4,2.6,5.3,2.3,5.3
		c-0.3,0-0.5,0.1-0.6,0.3L0.4,6.9C0.2,7,0.1,7.2,0.1,7.5c0,0.3,0.1,0.5,0.3,0.6l3.4,3.4l1.3,1.3c0.2,0.2,0.4,0.3,0.6,0.3
		c0.3,0,0.5-0.1,0.6-0.3l1.3-1.3l6.9-6.9c0.2-0.2,0.3-0.4,0.3-0.6C14.9,3.8,14.8,3.6,14.6,3.4z"/>
</g>
</svg>
