<?xml version="1.0" encoding="utf-8"?>
<!-- Generator: Adobe Illustrator 22.0.1, SVG Export Plug-In . SVG Version: 6.00 Build 0)  -->
<svg version="1.1" id="Ebene_1" xmlns="http://www.w3.org/2000/svg" xmlns:xlink="http://www.w3.org/1999/xlink" x="0px" y="0px"
	 viewBox="0 0 25 25" style="enable-background:new 0 0 25 25;" xml:space="preserve">
<style type="text/css">
	.st0{fill:#9DA5B4;}
</style>
<path class="st0" d="M11.2,4.5h2.5c0.4,0,0.8,0.3,0.8,0.8v5.3h2.7c0.6,0,0.8,0.7,0.4,1.1l-4.8,4.8c-0.2,0.2-0.6,0.2-0.9,0l-4.8-4.8
	c-0.4-0.4-0.1-1.1,0.4-1.1h2.7V5.2C10.5,4.8,10.8,4.5,11.2,4.5z M20.5,16.3v3.5c0,0.4-0.3,0.8-0.8,0.8H5.2c-0.4,0-0.8-0.3-0.8-0.8
	v-3.5c0-0.4,0.3-0.8,0.8-0.8h4.6l1.5,1.5c0.6,0.6,1.6,0.6,2.3,0l1.5-1.5h4.6C20.2,15.5,20.5,15.8,20.5,16.3z"/>
</svg>
