<?xml version="1.0" encoding="utf-8"?>
<!-- Generator: Adobe Illustrator 19.2.1, SVG Export Plug-In . SVG Version: 6.00 Build 0)  -->
<svg version="1.1" id="Ebene_1" xmlns="http://www.w3.org/2000/svg" xmlns:xlink="http://www.w3.org/1999/xlink" x="0px" y="0px"
	 viewBox="0 0 25 25" style="enable-background:new 0 0 25 25;" xml:space="preserve">
<style type="text/css">
	.st0{fill:#9EA5B4;}
</style>
<path class="st0" d="M21.7,6.8L6.8,21.7c-0.4,0.4-1,0.4-1.4,0l-2.1-2.1c-0.4-0.4-0.4-1,0-1.4L18.2,3.3c0.4-0.4,1-0.4,1.4,0l2.1,2.1
	C22.1,5.8,22.1,6.5,21.7,6.8z"/>
<path class="st0" d="M6.8,3.3l14.8,14.8c0.4,0.4,0.4,1,0,1.4l-2.1,2.1c-0.4,0.4-1,0.4-1.4,0L3.3,6.8c-0.4-0.4-0.4-1,0-1.4l2.1-2.1
	C5.8,2.9,6.5,2.9,6.8,3.3z"/>
</svg>
