<?xml version="1.0" encoding="utf-8"?>
<!-- Generator: Adobe Illustrator 20.1.0, SVG Export Plug-In . SVG Version: 6.00 Build 0)  -->
<svg version="1.1" id="Ebene_1" xmlns="http://www.w3.org/2000/svg" xmlns:xlink="http://www.w3.org/1999/xlink" x="0px" y="0px"
	 viewBox="0 0 25 25" style="enable-background:new 0 0 25 25;" xml:space="preserve">
<style type="text/css">
	.st0{fill:#9DA5B4;}
	.st1{fill:#9DA5B4;stroke:#9DA5B4;stroke-width:0.5;stroke-miterlimit:10;}
</style>
<path class="st0" d="M15.4,2.4H3.6c-0.5,0-0.9,0.4-0.9,0.9V18c0,0.5,0.4,0.9,0.9,0.9h0.8c0-0.4,0-0.9,0-1.3H4.1V3.7H15v0.4
	c0.4,0,0.9,0,1.3,0V3.3C16.3,2.8,15.9,2.4,15.4,2.4z"/>
<path class="st0" d="M17.4,4.4H5.6c-0.5,0-0.9,0.4-0.9,0.9V20c0,0.5,0.4,0.9,0.9,0.9h0.8c0-0.4,0-0.9,0-1.3H6.1V5.7H17V6
	c0.4,0,0.9,0,1.3,0V5.3C18.3,4.8,17.9,4.4,17.4,4.4z"/>
<path class="st0" d="M19.6,17.1c0,0-0.2,0-0.5,0l0,0v4.4H8.2V7.7h10.9v10.1c0.4,0,0.9,0,1.3,0V7.3c0-0.5-0.4-0.9-0.9-0.9H7.7
	c-0.5,0-0.9,0.4-0.9,0.9V22c0,0.5,0.4,0.9,0.9,0.9h11.8c0.5,0,0.9-0.4,0.9-0.9v-5C20,17.1,19.7,17.1,19.6,17.1z"/>
<path class="st1" d="M8.6,16.5c0.9-0.9,1.7-1.8,2.6-2.6c0.1-0.1,0.2-0.1,0.4,0c0.1,0.1,0.1,0.1,0.2,0.2c0.1,0.1,0.1,0.2,0,0.4
	c-0.7,0.7-1.4,1.4-2,2c-0.1,0.1-0.1,0.1,0,0.2c0.7,0.7,1.4,1.4,2,2c0.2,0.2,0.2,0.3,0,0.4c-0.1,0.1-0.2,0.1-0.2,0.2
	c-0.1,0.1-0.2,0.1-0.2,0c0,0-0.1-0.1-0.1-0.1c-0.8-0.8-1.6-1.6-2.4-2.4c0,0-0.1-0.1-0.1-0.1C8.6,16.6,8.6,16.5,8.6,16.5z"/>
<path class="st1" d="M18.7,16.6c0,0.1-0.1,0.1-0.1,0.2c-0.8,0.8-1.7,1.7-2.5,2.5c-0.2,0.2-0.2,0.2-0.4,0c-0.1-0.1-0.1-0.1-0.2-0.2
	c-0.1-0.1-0.1-0.2,0-0.3c0,0,0.1-0.1,0.1-0.1c0.7-0.7,1.3-1.3,2-2c0,0,0.1-0.1,0.1-0.1c0,0-0.1-0.1-0.1-0.1c-0.7-0.7-1.3-1.3-2-2
	c0,0-0.1-0.1-0.1-0.1c-0.1-0.1-0.1-0.2,0-0.3c0.1-0.1,0.1-0.1,0.2-0.2c0.1-0.1,0.2-0.1,0.3,0c0.2,0.2,0.5,0.5,0.7,0.7
	c0.6,0.6,1.2,1.2,1.8,1.8C18.6,16.4,18.7,16.4,18.7,16.6C18.7,16.5,18.7,16.5,18.7,16.6z"/>
<path class="st1" d="M12.2,20.1c0-0.1,0.1-0.3,0.1-0.5c0.3-0.9,0.5-1.9,0.8-2.8c0.4-1.3,0.8-2.7,1.1-4c0-0.2,0.1-0.2,0.3-0.2
	c0.1,0,0.2,0,0.2,0.1c0.2,0.1,0.2,0.1,0.2,0.3c-0.1,0.5-0.3,0.9-0.4,1.4c-0.3,1.1-0.6,2.1-0.9,3.2c-0.3,0.9-0.5,1.7-0.8,2.6
	c-0.1,0.2-0.1,0.2-0.3,0.2c-0.1,0-0.2,0-0.2-0.1C12.3,20.3,12.2,20.2,12.2,20.1z"/>
</svg>
