<?xml version="1.0" encoding="utf-8"?>
<!-- Generator: Adobe Illustrator 19.2.1, SVG Export Plug-In . SVG Version: 6.00 Build 0)  -->
<svg version="1.1" id="Ebene_1" xmlns="http://www.w3.org/2000/svg" xmlns:xlink="http://www.w3.org/1999/xlink" x="0px" y="0px"
	 viewBox="0 0 25 25" style="enable-background:new 0 0 25 25;" xml:space="preserve">
<style type="text/css">
	.st0{fill:#4A4A49;}
	.st1{fill:#25346C;}
	.st2{clip-path:url(#SVGID_2_);}
	.st3{fill:#010202;}
	.st4{fill:#FFFFFF;}
	.st5{fill:#6B6B6A;}
</style>
<g>
	<path class="st0" d="M0,0v12.2c0,2.5,0,4.9,0,7.4c0,1.8,0,3.6,0,5.4h25V0H0z"/>
</g>
<g>
	<path class="st1" d="M0,10.7c0,0.5,0,1,0,1.4V0h0v10.4C0,10.5,0,10.6,0,10.7z"/>
</g>
<g>
	<defs>
		<polygon id="SVGID_1_" points="0,25 25,25 25,0 0,0 		"/>
	</defs>
	<clipPath id="SVGID_2_">
		<use xlink:href="#SVGID_1_"  style="overflow:visible;"/>
	</clipPath>
	<g class="st2">
		<g>
			<path class="st3" d="M0.5,4.4c8,5.4,16,10.8,24,16.3"/>
		</g>
		<g>
			<polygon class="st4" points="25,23.1 0,6.2 0,1.8 25,18.8 			"/>
		</g>
	</g>
	<g class="st2">
		<g>
			<path class="st3" d="M24.9,4C16.7,9.5,8.5,15.2,0.2,20.9v0L24.9,4.2C24.9,4.2,24.9,4.1,24.9,4z"/>
		</g>
		<g>
			<path class="st4" d="M23.9,2.6C18.8,5.9,13.7,9.5,8.7,12.9c-2.9,2-5.8,4-8.7,5.9c0,0.3,0,0.5,0,0.8c0,1.2,0,2.4,0,3.6l25-17
				l0-4.4L23.9,2.6z"/>
		</g>
	</g>
</g>
<g>
	<line class="st3" x1="12.6" y1="0" x2="12.6" y2="25"/>
	<path class="st3" d="M0.2,12.5c8.3,0,16.6,0,24.8,0"/>
	<path class="st4" d="M16.2,8.9V0H9v8.9H0v1.4c0,0.2,0,0.3,0,0.5c0,1.8,0,3.6,0,5.3h9v9h7.2v-9H25V8.9H16.2z"/>
</g>
<g>
	<line class="st5" x1="12.6" y1="0" x2="12.6" y2="25"/>
	<path class="st5" d="M0.2,12.5c8.3,0,16.6,0,24.8,0"/>
	<path class="st5" d="M14.7,10.3V0h-4.3v10.3H0c0,0.1,0,0.3,0,0.4c0,1.3,0,2.6,0,3.9h10.4V25h4.3V14.7H25v-4.3H14.7z"/>
</g>
<polyline class="st5" points="7.3,8.9 0,4 0,5.3 5.3,8.9 "/>
<polyline class="st5" points="16.2,8.9 16.2,8.6 25,2.7 25,4.1 18.1,8.9 "/>
<polyline class="st5" points="17.9,16.1 19.8,16.1 25,19.7 25,20.9 "/>
<polyline class="st5" points="9,16.2 9,16.1 7.3,16.1 0,21 0,22.3 "/>
</svg>
