<?xml version="1.0" encoding="utf-8"?>
<!-- Generator: Adobe Illustrator 19.2.1, SVG Export Plug-In . SVG Version: 6.00 Build 0)  -->
<svg version="1.1" id="Ebene_1" xmlns="http://www.w3.org/2000/svg" xmlns:xlink="http://www.w3.org/1999/xlink" x="0px" y="0px"
	 viewBox="0 0 25 25" style="enable-background:new 0 0 25 25;" xml:space="preserve">
<style type="text/css">
	.st0{fill:#9DA5B4;}
</style>
<g>
	<path class="st0" d="M20.4,21.1c0,0.4-0.5,0.8-1.4,0.8H5.9c-0.7,0-1.4-0.3-1.4-0.8v-0.5c0-0.4,0.5-0.8,1.4-0.8H19
		c0.7,0,1.4,0.3,1.4,0.8V21.1z"/>
</g>
<g>
	<path class="st0" d="M9.7,18.4c0.1,0,0.3,0,0.3-0.1l3.8-4.2c0.1-0.1,0.1-0.3,0.1-0.4c0-0.1,0-0.3-0.1-0.4c-0.1-0.1-0.1-0.1-0.3-0.1
		h-1.8v-1.8c0-0.6,0-1,0-1.4s0.1-0.8,0.1-1.3C12,8.2,12,7.8,12.1,7.5c0.1-0.4,0.4-0.7,0.6-1c0.1-0.3,0.4-0.4,0.7-0.7
		c0.4-0.1,0.7-0.3,1.1-0.3c0.4-0.1,0.8-0.1,1.4-0.1c0.3,0,0.6,0,0.8,0h0.1c0.1,0,0.1,0,0.1,0c0.1,0,0.1,0,0.1-0.1l0.1-0.1
		c0-0.1,0-0.1-0.1-0.3l0-0.2c0,0-0.1-0.1-0.3-0.1c-0.1,0-0.1-0.1-0.1-0.1c-1.4-0.7-2.5-1-3.4-1c-1,0-1.8,0.1-2.5,0.4
		c-1.8,1-2.8,3.5-2.8,7.4v1.8h-2c-0.1,0-0.3,0-0.3,0.1c-0.1,0.1-0.1,0.3-0.1,0.4s0,0.3,0.1,0.4l3.8,4.2C9.6,18.3,9.6,18.4,9.7,18.4z
		"/>
</g>
</svg>
