<?xml version="1.0" encoding="utf-8"?>
<!-- Generator: Adobe Illustrator 19.2.1, SVG Export Plug-In . SVG Version: 6.00 Build 0)  -->
<svg version="1.1" id="Ebene_1" xmlns="http://www.w3.org/2000/svg" xmlns:xlink="http://www.w3.org/1999/xlink" x="0px" y="0px"
	 viewBox="0 0 25 25" style="enable-background:new 0 0 25 25;" xml:space="preserve">
<style type="text/css">
	.st0{fill:#9DA5B4;}
	.st1{fill:none;stroke:#9DA5B4;stroke-width:2.4413;stroke-miterlimit:10;}
</style>
<g>
	<path class="st0" d="M17.1,18.1c0,0.4-0.3,0.8-0.8,0.8H8.7c-0.4,0-0.8-0.3-0.8-0.8v-0.5c0-0.4,0.3-0.8,0.8-0.8h7.6
		c0.4,0,0.8,0.3,0.8,0.8V18.1z"/>
</g>
<path class="st1" d="M19.4,21.9H5.6c-0.6,0-1.1-0.5-1.1-1.1V4.4c0-0.6,0.5-1.1,1.1-1.1h13.7c0.6,0,1.1,0.5,1.1,1.1v16.4
	C20.5,21.4,20,21.9,19.4,21.9z"/>
<g>
	<path class="st0" d="M10.9,16.1c0.1,0,0.2,0,0.2-0.1l2.7-3c0.1-0.1,0.1-0.2,0.1-0.3c0-0.1,0-0.2-0.1-0.3c-0.1-0.1-0.1-0.1-0.2-0.1
		h-1.3V11c0-0.4,0-0.7,0-1c0-0.3,0.1-0.6,0.1-0.9c0.1-0.3,0.1-0.6,0.2-0.8C12.7,8,12.9,7.8,13,7.6c0.1-0.2,0.3-0.3,0.5-0.5
		C13.8,7,14,6.9,14.3,6.9c0.3-0.1,0.6-0.1,1-0.1c0.2,0,0.4,0,0.6,0c0,0,0.1,0,0.1,0c0.1,0,0.1,0,0.1,0c0.1,0,0.1,0,0.1-0.1
		c0,0,0.1-0.1,0.1-0.1c0-0.1,0-0.1-0.1-0.2c0,0-0.1-0.1-0.1-0.1c0,0-0.1-0.1-0.2-0.1c-0.1,0-0.1-0.1-0.1-0.1c-1-0.5-1.8-0.7-2.4-0.7
		c-0.7,0-1.3,0.1-1.8,0.3C10.3,6.4,9.6,8.2,9.6,11v1.3H8.2c-0.1,0-0.2,0-0.2,0.1c-0.1,0.1-0.1,0.2-0.1,0.3c0,0.1,0,0.2,0.1,0.3
		l2.7,3C10.8,16,10.8,16.1,10.9,16.1z"/>
</g>
</svg>
