<?xml version="1.0" encoding="utf-8"?>
<!-- Generator: Adobe Illustrator 20.1.0, SVG Export Plug-In . SVG Version: 6.00 Build 0)  -->
<svg version="1.1" id="Ebene_1" xmlns="http://www.w3.org/2000/svg" xmlns:xlink="http://www.w3.org/1999/xlink" x="0px" y="0px"
	 viewBox="0 0 25 25" style="enable-background:new 0 0 25 25;" xml:space="preserve">
<style type="text/css">
	.st0{fill:none;}
	.st1{fill:#9DA5B4;stroke:#9DA5B4;stroke-width:0.25;stroke-miterlimit:10;}
	.st2{font-family:'UniversLTStd-BlackObl';}
	.st3{font-size:8px;}
	.st4{fill:#9DA5B4;}
</style>
<rect x="-12.8" y="8.6" class="st0" width="25.5" height="21.6"/>
<text transform="matrix(1 0 0 1 10.25 23.4)" class="st1 st2 st3">n</text>
<path class="st4" d="M18.8,3.6c0,0.3,0,0.6,0.1,0.9c0,0.3,0.1,0.5,0.1,0.8C19,5.6,19,6,19.1,6.3c0,0.3,0,0.5,0.1,0.8
	c-0.2,0-0.3,0-0.5,0c0-0.2-0.1-0.5-0.1-0.7C18.5,6,18.3,5.6,18,5.3c-0.3-0.4-0.7-0.6-1.2-0.7c-0.4-0.1-0.7-0.1-1.1-0.1
	c-2,0-4.1,0-6.1,0c0,0,0,0-0.1,0c1.8,1.9,3.5,3.7,5.2,5.5c-2,1.9-4,3.9-5.9,5.8c0.1,0,0.1,0,0.1,0c2.3,0,4.5,0,6.8,0
	c0.7,0,1.3-0.1,2-0.3c0.6-0.2,1.1-0.6,1.4-1.2c0.1-0.3,0.3-0.6,0.4-0.9c0,0,0-0.1,0-0.1c0.2,0,0.3,0.1,0.5,0.1
	c0,0.2-0.1,0.5-0.1,0.7c-0.1,0.5-0.2,1-0.3,1.5c-0.1,0.5-0.2,1-0.3,1.5c0,0.2-0.1,0.4-0.1,0.6c-4.4,0-8.9,0-13.3,0
	c0-0.1,0-0.3,0-0.4c0.6-0.6,1.3-1.2,1.9-1.9c1-0.9,1.9-1.9,2.9-2.8c0.6-0.6,1.2-1.2,1.8-1.7c0-0.1-0.1-0.1-0.1-0.2
	c-0.6-0.6-1.2-1.3-1.8-1.9C9.4,7.6,8.2,6.3,7,5C6.6,4.7,6.3,4.3,5.9,4c0-0.1,0-0.3,0-0.4C10.2,3.6,14.5,3.6,18.8,3.6z"/>
</svg>
