<?xml version="1.0" encoding="utf-8"?>
<!-- Generator: Adobe Illustrator 19.2.1, SVG Export Plug-In . SVG Version: 6.00 Build 0)  -->
<svg version="1.1" id="Ebene_1" xmlns="http://www.w3.org/2000/svg" xmlns:xlink="http://www.w3.org/1999/xlink" x="0px" y="0px"
	 viewBox="0 0 25 25" style="enable-background:new 0 0 25 25;" xml:space="preserve">
<style type="text/css">
	.st0{fill:#9DA5B4;}
</style>
<g>
	<path class="st0" d="M11.6,10.9V4.5h3.3v15.9h-3.3v-7.1H7.8v7.1H4.5V4.5h3.3v6.4H11.6z"/>
</g>
<g>
	<path class="st0" d="M16.1,14.7c0-0.8,0.2-1.3,0.5-1.6c0.4-0.3,0.9-0.4,1.7-0.4c1.4,0,2.1,0.6,2.1,2c0,0.7-0.2,1.6-1,1.7v0
		c1,0.2,1.2,1,1.2,1.9c0,1.6-0.8,2.2-2.4,2.2c-1.5,0-2.1-0.5-2.1-2.2h1.6c0,0.5,0,1.1,0.7,1.1c0.7,0,0.8-0.6,0.8-1.2
		c0-1.1-0.4-1.2-1.4-1.2v-1.2c1,0,1.3-0.1,1.3-1.1c0-0.4-0.1-0.9-0.6-0.9c-0.6,0-0.6,0.5-0.6,0.9H16.1z"/>
</g>
</svg>
