<?xml version="1.0" encoding="utf-8"?>
<!-- Generator: Adobe Illustrator 19.2.1, SVG Export Plug-In . SVG Version: 6.00 Build 0)  -->
<svg version="1.1" id="Ebene_1" xmlns="http://www.w3.org/2000/svg" xmlns:xlink="http://www.w3.org/1999/xlink" x="0px" y="0px"
	 viewBox="0 0 25 25" style="enable-background:new 0 0 25 25;" xml:space="preserve">
<style type="text/css">
	.st0{fill:#9DA5B4;}
</style>
<g>
	<path class="st0" d="M11.6,10.9V4.5h3.3v15.9h-3.3v-7.1H7.8v7.1H4.5V4.5h3.3v6.4H11.6z"/>
</g>
<g>
	<path class="st0" d="M17.8,15.9L17.8,15.9c0.3-0.3,0.7-0.5,1.1-0.5c1.3,0,1.6,0.9,1.6,2.5c0,2.1-0.8,2.6-2.3,2.6
		c-1.3,0-2.1-0.5-2-1.9h1.6c0,0.2,0,0.4,0.1,0.5c0.1,0.1,0.2,0.2,0.5,0.2c0.6,0,0.7-0.5,0.7-1.5c0-0.5,0-1.5-0.7-1.5
		c-0.5,0-0.6,0.5-0.6,0.9h-1.5v-4.5h4V14h-2.5V15.9z"/>
</g>
</svg>
