<?xml version="1.0" encoding="utf-8"?>
<!-- Generator: Adobe Illustrator 19.2.1, SVG Export Plug-In . SVG Version: 6.00 Build 0)  -->
<svg version="1.1" id="Ebene_1" xmlns="http://www.w3.org/2000/svg" xmlns:xlink="http://www.w3.org/1999/xlink" x="0px" y="0px"
	 viewBox="0 0 25 25" style="enable-background:new 0 0 25 25;" xml:space="preserve">
<style type="text/css">
	.st0{fill:#9DA5B4;}
</style>
<g>
	<path class="st0" d="M11.6,10.9V4.5h3.3v15.9h-3.3v-7.1H7.8v7.1H4.5V4.5h3.3v6.4H11.6z"/>
</g>
<g>
	<path class="st0" d="M18.8,14.4c0-0.2,0-0.4-0.1-0.5c-0.1-0.1-0.2-0.2-0.4-0.2c-0.7,0-0.7,0.3-0.7,2.3c0.4-0.4,0.7-0.5,1.2-0.5
		c1.4,0,1.7,1.3,1.7,2.4c0,1.6-0.6,2.6-2.3,2.6c-2,0-2.1-1.7-2.1-3.3c0-3.1,0.2-4.6,2.4-4.6c1.2,0,2,0.5,2,1.8H18.8z M19,17.9
		c0-1-0.1-1.4-0.7-1.4c-0.6,0-0.6,0.6-0.6,1.5c0,0.5,0,1.4,0.6,1.4C18.8,19.4,19,19.1,19,17.9z"/>
</g>
</svg>
