<svg id="Ebene_1" data-name="Ebene 1" xmlns="http://www.w3.org/2000/svg" viewBox="0 0 25 25"><defs><style>.cls-1{fill:#9da5b4;}</style></defs><title>iconvorlage</title><path class="cls-1" d="M23.34,4.74a.52.52,0,0,0-.4-.2h-2.4V2.14a.52.52,0,0,0-.2-.4.52.52,0,0,0-.4-.2h-1.1a.52.52,0,0,0-.4.2.52.52,0,0,0-.2.4v2.4h-2.4a.52.52,0,0,0-.4.2.52.52,0,0,0-.2.4v1.1a.52.52,0,0,0,.2.4.52.52,0,0,0,.4.2h2.4v2.3a.71.71,0,0,0,.6.6h1.1a.71.71,0,0,0,.6-.6V6.74h2.4a.52.52,0,0,0,.4-.2.52.52,0,0,0,.2-.4v-1C23.44,4.94,23.44,4.84,23.34,4.74Z"/><path class="cls-1" d="M13,9.9V6a1.48,1.48,0,0,1,.3.23L16.71,9.6a1.48,1.48,0,0,1,.23.3ZM12,10.17a.82.82,0,0,0,.8.8h4.53v8.78a.78.78,0,0,1-.24.57.77.77,0,0,1-.56.23H5.3a.79.79,0,0,1-.8-.8V6.44a.77.77,0,0,1,.23-.56.78.78,0,0,1,.57-.24H12Z"/></svg>