<?xml version="1.0" encoding="utf-8"?>
<!-- Generator: Adobe Illustrator 19.2.1, SVG Export Plug-In . SVG Version: 6.00 Build 0)  -->
<svg version="1.1" id="Ebene_1" xmlns="http://www.w3.org/2000/svg" xmlns:xlink="http://www.w3.org/1999/xlink" x="0px" y="0px"
	 viewBox="0 0 25 25" style="enable-background:new 0 0 25 25;" xml:space="preserve">
<style type="text/css">
	.st0{fill:#9DA5B4;}
</style>
<path class="st0" d="M20.3,15.2C20.1,15.1,20,15,19.8,15h-9.3c-0.4,0-0.8,0.1-1.2,0.3c-0.4,0.2-0.8,0.4-1,0.7l-2.9,3.4
	c-0.2,0.2-0.3,0.4-0.3,0.6c0,0.2,0.1,0.3,0.2,0.4c0.2,0.1,0.3,0.1,0.5,0.1h9.3c0.4,0,0.8-0.1,1.2-0.3c0.4-0.2,0.8-0.4,1-0.7l2.9-3.4
	c0.2-0.2,0.3-0.4,0.3-0.6C20.5,15.4,20.4,15.2,20.3,15.2z"/>
<path class="st0" d="M16.7,12.8c-0.2,0.1-0.3,0.2-0.6,0.2h-1.6c-0.2,0-0.4-0.1-0.6-0.2c-0.2-0.1-0.2-0.3-0.2-0.4v-1.6H11v-0.3
	c0-0.5-0.2-1-0.6-1.3c-0.4-0.4-0.8-0.6-1.3-0.6H6.4c-0.5,0-1,0.2-1.3,0.6c-0.4,0.4-0.6,0.8-0.6,1.3v8.2c0,0,0,0.1,0,0.1
	c0,0,0,0.1,0,0.1l0-0.1l2.9-3.4c0.3-0.4,0.8-0.7,1.4-1C9.4,14.1,10,14,10.5,14h7.1v-1.4c0-0.5-0.2-1-0.6-1.3c0,0-0.1-0.1-0.1-0.1
	v1.2C16.9,12.5,16.8,12.6,16.7,12.8z"/>
<g>
	<path class="st0" d="M19.2,7.6c-0.1-0.1-0.2-0.2-0.4-0.2h-2.4V5c0-0.2-0.1-0.3-0.2-0.4c-0.1-0.1-0.2-0.2-0.4-0.2h-1.1
		c-0.2,0-0.3,0.1-0.4,0.2c-0.1,0.1-0.2,0.2-0.2,0.4v2.4h-2.4c-0.2,0-0.3,0.1-0.4,0.2c-0.1,0.1-0.2,0.2-0.2,0.4v1.1
		c0,0.2,0.1,0.3,0.2,0.4c0.1,0.1,0.2,0.2,0.4,0.2h2.4V12c0,0.2,0.1,0.3,0.2,0.4c0.1,0.1,0.2,0.2,0.4,0.2h1.1c0.2,0,0.3-0.1,0.4-0.2
		c0.1-0.1,0.2-0.2,0.2-0.4V9.6h2.4c0.2,0,0.3-0.1,0.4-0.2c0.1-0.1,0.2-0.2,0.2-0.4V8C19.3,7.8,19.3,7.7,19.2,7.6z"/>
</g>
</svg>
